<svg width="50" height="50" viewBox="0 0 50 50" fill="none" xmlns="http://www.w3.org/2000/svg">
<g clip-path="url(#clip0_910_1774)">
<path d="M49.8571 5.15235C49.5841 4.89997 48.3349 5.37616 47.5762 5.62378C46.9492 5.8333 46.1746 6.08568 45.1286 6.49997C36.8571 9.76981 29.6841 15.4746 24.0714 22.3206C23.2619 23.3079 22.3429 24.4333 21.5175 25.4698C21.2952 25.292 15.5476 13.427 15.4016 13.0095C15.3921 12.9857 15.3778 12.9174 15.3683 12.8825C15.2619 12.4936 15.5095 12.1968 15.854 12.1523H18.1524V6.9079H0V12.1523H2.42222C2.66032 12.2063 2.8746 12.2539 3.09365 12.6587C3.20476 12.8635 7.84762 20.5635 11.8333 28.8714C13.0873 31.4873 14.7651 35.219 15.4635 36.8206C15.9175 37.8603 16.2048 38.3666 16.2413 38.9635C16.2667 39.3492 15.9857 39.573 15.8381 39.6333C15.7159 39.6841 15.6016 39.6889 15.5079 39.6889H12.1524V44.9206H27.5063V39.6889H24.2413C24.1 39.6889 23.9698 39.6476 23.8556 39.5841C23.6159 39.4508 23.4349 39.2428 23.4444 38.9063C23.4762 38.4762 23.7064 38.0269 23.8254 37.7523C25.1698 34.6682 26.0905 32.5396 27.254 29.8714C30.5429 22.3254 34.3683 15.065 41.6286 10.0762C43.1286 9.046 44.8429 8.06822 46.4921 7.30631C47.3143 6.92695 48.1794 6.48409 49.027 6.1587C49.5238 5.96822 50.3302 5.59997 49.8587 5.15235H49.8571Z" fill="url(#paint0_linear_910_1774)"/>
</g>
<defs>
<linearGradient id="paint0_linear_910_1774" x1="0" y1="25" x2="50" y2="25" gradientUnits="userSpaceOnUse">
<stop stop-color="#FF6B00"/>
<stop offset="1" stop-color="#FF2E00"/>
</linearGradient>
<clipPath id="clip0_910_1774">
<rect width="50" height="50" fill="white"/>
</clipPath>
</defs>
</svg>
